<svg width="57" height="64" xmlns="http://www.w3.org/2000/svg"><g id="Page-1" stroke="none" stroke-width="1" fill="none" fill-rule="evenodd"><g id="Gift" transform="translate(1 1)" stroke="#6B6C6E" stroke-width="2"><path d="M53 32.1v27.6c0 1.3-1 2.3-2.3 2.3H4.4c-1.3 0-2.3-1-2.3-2.3V32.1M55 29.7c0 1.3-1 2.3-2.3 2.3H2.3C1 32 0 31 0 29.7V19.4c0-1.3 1-2.3 2.3-2.3h50.4c1.3 0 2.3 1 2.3 2.3v10.3h0z" id="Shape"/><path d="M42.3 9.8c-2.2 2.2-12.2 8.6-14.5 6.4C25.6 14 32 3.9 34.2 1.7c2.2-2.2 5.8-2.2 8.1 0 2.2 2.2 2.2 5.9 0 8.1h0z" id="Shape"/><path d="M12.6 9.8c2.2 2.2 12.3 8.7 14.5 6.5 2.2-2.2-4.2-12.3-6.5-14.5-2.2-2.2-5.8-2.2-8 0-2.2 2.1-2.2 5.7 0 8h0zm8 15.4s1.5-4.6 7.3-6.9v43.6m-.4-43.5s2.3 8 10.3 9.2" id="Shape"/></g></g></svg>